<?xml version="1.0" encoding="utf-8"?>
<!-- Generator: Adobe Illustrator 27.5.0, SVG Export Plug-In . SVG Version: 6.00 Build 0)  -->
<svg version="1.1" xmlns="http://www.w3.org/2000/svg" xmlns:xlink="http://www.w3.org/1999/xlink" x="0px" y="0px"
	 viewBox="0 0 750 500" style="enable-background:new 0 0 750 500;" xml:space="preserve">
<g id="Слой_1">
	
		<rect x="-0.019" y="0.092" style="fill-rule:evenodd;clip-rule:evenodd;fill:#CCCCCC;stroke:#CCCCCC;stroke-width:0.5669;stroke-miterlimit:22.9256;" width="750" height="500"/>
</g>
<g id="Слой_2">
	<g>
		<g>
			<rect x="33.668" y="46.851" style="fill-rule:evenodd;clip-rule:evenodd;fill:#FFFFFF;" width="683.719" height="406.489"/>
			<path style="fill-rule:evenodd;clip-rule:evenodd;fill:#FFFFFF;" d="M32.576,46.851h684.811v192.371
				c-3.215-4.677-30.949-44.957-32.86-45.414c-2.029-0.485-4.454,4.498-4.454,4.498s-32.103-43.392-35.63-43.568
				c-3.528-0.176-49.389,64.735-55.033,72.849c-5.645,8.114-47.713,70.732-47.713,70.732s-16.228-34.837-17.639-35.895
				c-1.411-1.058-4.321,2.381-4.321,2.381s-11.465-23.813-13.406-24.165c-8.632-1.569-87.367,130.515-96.088,145.785
				c0,0-11.333-16.316-13.273-16.845c-7.559-2.062-49.243,75.733-53.666,83.753H32.576V46.851z"/>
			<path style="fill-rule:evenodd;clip-rule:evenodd;fill:#B5C6E5;" d="M717.387,239.824c0,0-31.187-45.53-33.215-46.016
				c-2.028-0.485-4.454,4.498-4.454,4.498s-32.103-43.392-35.631-43.568c-3.528-0.176-49.389,64.735-55.033,72.849
				c-5.644,8.114-47.713,70.732-47.713,70.732s-16.228-34.837-17.639-35.895c-1.411-1.058-4.322,2.381-4.322,2.381
				s-11.465-23.813-13.406-24.165c-8.632-1.569-87.367,130.515-96.088,145.785c0,0-11.333-16.316-13.273-16.845
				c-0.09-0.025-0.186-0.034-0.289-0.03c-1.919-0.04-5.589,4.027-10.151,10.401c-1.039,1.337-2.133,2.767-3.275,4.268
				c-2.232,2.936-7.407,11.581-13.317,21.805c-12.26,20.66-24.363,43.189-26.634,47.308h12.477l-0.018,0.007h-5.51h-5.126h-16.308
				h-2.936h-2.443h-1.932h-1.402h-0.855h-0.289h-2.23c4.847-9.129,8.717-18.774,13.916-27.727
				c14.505-25.956,28.697-52.102,44.216-77.474c8.586-14.412,17.059-28.895,25.376-43.464c4.648-7.882,8.531-16.281,13.826-23.753
				c7.249-9.427,14.579,21.028,17.388,25.309c0.993,1.929,1.675,4.83,3.763,1.886c4.637-7.179,7.764-15.303,12.311-22.577
				c8.616-14.151,16.54-28.701,24.663-43.137c5.852-10.633,10.703-21.795,16.792-32.298c4.12-6.949,8.623-13.571,12.699-20.51
				c3.086-5.118,5.956-10.37,9.21-15.385c2.418-3.553,4.627-7.589,8.335-9.944c5.728-2.872,16.916,17.631,19.752,21.854
				c3.351,5.223,6.902,10.315,10.247,15.541c2.353,3.027,9.979,17.625,13.707,16.303c6.039-3.078,9.78-9.288,14.335-14.12
				c7.688-9.412,14.455-19.529,22.054-29.015c3.656-4.686,7.01-9.606,10.735-14.24c3.984-5.275,5.642-3.875,7.167,1.937
				c4.123-4.94,6.837-10.696,10.389-16.005c4.478-6.775,9.786-12.959,14.647-19.456c3.538-3.963,8.716-14.232,14.445-7.517
				c3.712,3.759,6.793,8.368,9.749,12.66c9.725,12.594,19.337,25.356,29.912,37.25c6.82,7.226,13,14.985,19.472,22.51
				c0.245,0.423,1,1.222,1.903,2.171C717.387,209.366,717.387,223.967,717.387,239.824z"/>
			<g>
				<g>
					<path style="fill-rule:evenodd;clip-rule:evenodd;fill:#FFFFFF;" d="M525.25,206.356c-1.495-2.46-2.555-5.164-3.856-7.731
						c-0.999-2.106-1.988-4.275-3.479-6.086c-0.091-0.091-0.173-0.197-0.277-0.27c-0.099,0.002-0.179,0.085-0.256,0.14
						c-0.704,0.715-1.338,1.495-2,2.249c-1.568,1.847-3.223,3.758-4.792,5.557c-1.026,1.134-3.199,5.251-3.533,1.348
						c-0.451-2.617-0.676-5.373-1.909-7.764c-4.559,3.219-8.86,6.799-13.315,10.162c-1.094,0.815-2.218,1.593-3.355,2.346
						c-0.251,0.189-0.512,0.486-0.849,0.291c-0.421-0.244-0.256-0.784,0.096-1.016c4.379-2.969,8.416-6.363,12.624-9.56
						c0.84-0.641,1.687-1.272,2.53-1.909c0.42-0.316,0.836-0.638,1.266-0.94c0.373-0.258,0.808-0.568,1.286-0.459
						c1.69,0.633,2.424,7.151,2.722,8.934c1.805-2.55,3.97-4.736,5.946-7.137c0.69-0.791,1.372-1.591,2.077-2.37
						c0.351-0.385,0.724-0.84,1.268-0.925c1.707-0.418,4.434,6.033,5.142,7.446c1.079,2.165,2.054,4.425,3.194,6.541
						c1.111-3.892,1.141-7.965,1.708-11.949c0.298-2.11,0.439-4.247,0.872-6.335c0.134-0.514,0.187-1.106,0.536-1.528
						c0.41-0.443,1.052-0.161,1.359,0.259c0.93,1.217,1.526,2.645,2.225,3.998c1.112,2.044,2.482,4.025,4.21,5.561
						c0.874-1.666,0.902-3.619,1.19-5.443c0.24-1.759,0.368-3.531,0.573-5.294c0.038-0.283,0.295-0.492,0.581-0.458
						c0.291,0.035,0.482,0.297,0.458,0.581c-0.042,0.521-0.08,1.041-0.13,1.559c-0.262,2.479-0.502,5.002-0.969,7.444
						c-0.253,0.927-0.721,3.345-2.11,2.655c-0.529-0.36-0.91-0.791-1.347-1.241c-1.099-1.178-2.04-2.5-2.868-3.88
						c-0.896-1.5-1.51-3.157-2.507-4.6c-0.372,1.418-0.512,2.884-0.689,4.335c-0.246,2.134-0.555,4.261-0.753,6.4
						c-0.204,2.198-0.437,4.398-0.898,6.56C527.014,204.671,526.58,207.723,525.25,206.356z"/>
					<path style="fill-rule:evenodd;clip-rule:evenodd;fill:#FFFFFF;" d="M526.525,210.012c-1.426-1.185-2.256-2.964-3.275-4.491
						c-2.38-3.552-3.962-7.542-4.963-11.683c-2.207,3.927-5.118,7.388-7.586,11.144c-0.548,0.693-1.427,2.474-2.487,1.687
						c-0.549-0.692-0.665-1.643-0.953-2.463c-0.798-2.956-1.559-5.927-2.177-8.926c-1.028,0.995-2.013,1.904-3.1,2.812
						c-2.693,2.061-5.625,3.788-8.291,5.873c-0.914,0.684-1.823,1.372-2.711,2.09c-0.676,0.486-1.225,1.177-1.954,1.575
						c-0.574,0.165-0.918-0.632-0.402-0.942c3.643-3.214,7.693-5.942,11.696-8.668c1.619-1.219,3.157-2.577,4.519-4.045
						c0.181-0.279,0.538-0.43,0.831-0.216c0.24,0.163,0.276,0.458,0.343,0.72c0.127,0.538,0.226,1.084,0.343,1.623
						c0.796,3.174,1.464,6.392,2.502,9.498c1.171-1.372,2.029-2.984,3.134-4.409c2.097-2.789,4.103-5.662,5.822-8.701
						c1.267-1.302,1.791,2.198,2.042,2.943c0.249,0.913,0.537,1.816,0.849,2.709c0.889,2.373,2.054,4.604,3.419,6.719
						c0.843,1.345,1.609,2.681,2.62,3.882c1.193-3.718,0.875-7.729,1.422-11.564c0.405-2.709,1.055-5.423,1.146-8.165
						c0.037-0.729,0.056-1.459,0.065-2.189c0.002-0.212,0.122-0.431,0.327-0.51c0.627-0.259,0.957,0.504,1.218,0.938
						c1.155,2.11,2.147,4.233,3.497,6.217c0.729,1.014,1.514,1.805,2.329,2.691c0.214-1.471,0.549-2.866,0.829-4.318
						c0.222-1.105,0.427-2.214,0.652-3.32c0.062-0.511,0.303-1.095,0.917-0.781c0.089-0.954,0.061-1.917,0.148-2.869
						c0.112-0.492,0.831-0.552,1.029-0.088c0.132,0.498,0,1.045,0.003,1.558c-0.038,1.768-0.036,3.536-0.058,5.304
						c-0.061,1.646,0.037,6.928-1.621,7.613c-0.719,0.164-1.137-0.628-1.576-1.057c-0.474-0.541-0.929-1.097-1.411-1.62
						c-2.324-2.23-3.77-5.133-5.225-7.944c-0.051,3.555-1.074,6.993-1.359,10.523C528.833,200.649,528.806,210.986,526.525,210.012
						L526.525,210.012z M537.917,197.512c0-0.045,0-0.091,0.002-0.136c-0.038,0.006-0.076,0.008-0.114,0.007
						C537.842,197.426,537.88,197.469,537.917,197.512z"/>
					<path style="fill-rule:evenodd;clip-rule:evenodd;fill:#FFFFFF;" d="M508.675,206.065c-0.233-0.087-0.409-0.358-0.363-0.608
						c0.005-0.026,0.01-0.051,0.017-0.076c-0.737-1.476-0.951-3.16-1.398-4.741c-0.417-1.628-0.872-3.244-1.299-4.869
						c-2.825,2.063-5.751,3.98-8.645,5.946c-1.372,1.048-2.708,2.14-4.096,3.166c-0.163,0.121-0.373,0.148-0.549,0.073
						c-0.282,0.265-0.752,0.483-1.048,0.113c-0.163-0.201-0.169-0.538,0.029-0.722c0.674-0.597,1.367-1.175,2.043-1.77
						c-0.039-0.286,0.162-0.52,0.368-0.695c0.341-0.318,0.699-0.617,1.06-0.913c1.368-1.114,2.782-2.169,4.19-3.232
						c2.141-1.421,3.623-3.576,5.65-5.14c1.661-1.272,1.886-0.519,2.546,1.073c0.838,2.313,1.551,4.666,2.533,6.914
						c0.118-0.12,0.246-0.239,0.403-0.296c1.111-1.717,2.482-3.251,3.83-4.783c0.535-0.503,0.942-1.243,1.624-1.543
						c0.5-0.551,1.027-1.075,1.585-1.568c0.206-0.159,0.398-0.385,0.668-0.424c0.293-0.028,0.586,0.156,0.625,0.465
						c0.04,0.426-0.354,0.709-0.583,1.019c0.054,0.065,0.093,0.14,0.112,0.222c0.57,0.105,0.537,1.037-0.051,1.072
						c-1.26,1.298-2.315,2.784-3.48,4.128c-1.347,1.568-2.595,3.162-3.905,4.747c-0.133,0.72-0.698,1.297-1.029,1.942
						C509.427,205.94,509.037,206.207,508.675,206.065z"/>
					<path style="fill-rule:evenodd;clip-rule:evenodd;fill:#FFFFFF;" d="M659.298,145.71c-1.805-3.319-2.992-6.938-4.622-10.342
						c-0.816-1.509-1.392-3.113-2.469-4.427c-1.152,2.685-2.321,5.425-3.888,7.894c-0.237,0.39-0.622,0.908-1.142,0.72
						c-0.35-0.139-0.468-0.546-0.567-0.874c-0.147-0.488-0.266-0.984-0.384-1.48c-0.615-2.388-1.017-4.82-1.501-7.234
						c-2.434,1.911-4.759,3.982-7.35,5.683c-0.995,0.656-2.088,1.146-3.096,1.778c-0.369,0.661-1.291,0.022-0.872-0.586
						c0.484-0.546,1.229-0.798,1.841-1.176c1.411-0.765,2.678-1.627,3.908-2.621c1.273-0.991,2.537-1.99,3.783-3.015
						c0.494-0.401,0.984-0.81,1.503-1.18c0.313-0.267,0.781-0.242,1.033,0.097c0.272,0.396,0.314,0.917,0.423,1.375
						c0.157,0.789,0.293,1.58,0.437,2.371c0.342,1.849,0.775,3.557,1.219,5.363c1.313-2.154,2.401-4.433,3.361-6.763
						c0.257-0.505,0.381-1.18,0.919-1.463c1.41-0.499,2.618,3.023,3.233,3.988c1.698,3.291,2.877,6.818,4.509,10.142
						c0.175-2.487,0.346-5.068,0.508-7.542c0.055-1.094,0.089-2.186,0.105-3.281c0.007-0.513,0.007-1.027,0.028-1.54
						c0.023-0.413,0.008-0.884,0.299-1.212c0.702-0.611,1.637,0.351,2.273,0.682c1.352,0.82,2.565,1.912,3.865,2.788
						c1.511,0.915,3.059,1.779,4.409,2.931c0.223,0.183,0.292,0.499,0.114,0.741c-0.169,0.232-0.507,0.285-0.74,0.114
						c-0.702-0.516-1.386-1.054-2.101-1.52c-0.738-0.478-1.513-0.884-2.205-1.335c-1.628-1.108-3.152-2.479-4.86-3.417
						c-0.041,3.305-0.211,6.602-0.469,9.898c-0.096,1.239-0.135,2.482-0.299,3.715C660.479,145.666,659.921,146.405,659.298,145.71z
						"/>
					<path style="fill-rule:evenodd;clip-rule:evenodd;fill:#FFFFFF;" d="M646.513,142.693c-0.92-2.235-1.313-4.687-1.846-7.044
						c-0.271-1.348-0.556-2.695-0.727-4.06c-2.098,1.601-4.253,3.123-6.307,4.783c-2.022,1.494-3.925,3.18-6.08,4.481
						c-0.424,0.194-0.896-0.258-0.715-0.692c0.154-0.288,0.45-0.501,0.674-0.73c3.187-2.933,6.796-5.354,10.257-7.947
						c0.813-0.577,1.626-1.154,2.472-1.682c0.312-0.178,0.667-0.478,1.037-0.284c0.417,0.241,0.319,0.768-0.042,1.014
						c0.651,2.777,1.292,5.566,2.127,8.3c1.488-2.363,2.834-4.81,4.098-7.298c0.157-0.324,0.333-0.743,0.751-0.761
						c0.462-0.01,0.658,0.516,0.452,0.885c0.209,0.255-0.015,0.651-0.132,0.871c-0.812,1.915-1.517,3.883-2.506,5.722
						c-0.544,1.058-1.092,2.112-1.672,3.149c-0.208,0.373-0.418,0.745-0.655,1.1c-0.083,0.142-0.243,0.249-0.398,0.267
						C647.074,142.982,646.715,142.929,646.513,142.693z"/>
				</g>
				<g>
					<path style="fill-rule:evenodd;clip-rule:evenodd;fill:#FFFFFF;" d="M418.875,453.34c3.215-5.486,6.936-10.752,9.97-16.316
						c5.067-8.443,9.698-17.141,14.985-25.452c3.309-5.332,6.545-10.716,10.009-15.949c4.977-7.467,8.737,5.797,10.746,9.324
						c4.366-4.039,6.802-9.58,9.907-14.546c3.746-6.172,7.811-12.138,11.463-18.35c2.332-3.962,4.475-8.037,6.916-11.934
						c2.515-4.802,5.21-4.348,7.63,0.253c11.264,20.231,19.65,41.897,30.241,62.454c3.074-3.436,5.157-7.755,7.189-11.859
						c1.328-2.017,1.735-6.076,4.464-6.487c2.649,0.835,4.495,6.977,6.18,9.348c4.583,8.115,8.629,16.403,13.563,24.272
						c2.794,5.015,6.185,9.67,8.946,14.701c0.112,0.183,0.165,0.366,0.173,0.54h-2.524c-0.293-0.47-0.594-0.935-0.892-1.402
						c-9.493-14.264-17.24-29.543-25.562-44.489c-2.567,4.56-6.747,16.203-11.554,18.005c-3.056-0.009-7.254-12.841-9.054-15.778
						c-4.106-8.695-8.071-17.456-12.234-26.125c-4.036-8.219-7.435-17.113-12.898-24.454c-3.388,4.472-5.687,9.527-8.586,14.299
						c-4.873,8.247-10.353,16.122-15.027,24.489c-11.474,17.878-8.603,7.582-16.103-2.051c-11.82,16.874-21.25,35.336-32.171,52.807
						c-0.96,1.568-1.932,3.13-2.894,4.698H418.875z"/>
					<path style="fill-rule:evenodd;clip-rule:evenodd;fill:#FFFFFF;" d="M504.576,393.934c-2.5-4.284-3.779-9.216-5.809-13.741
						c-1.792,2.451-3.673,4.836-5.35,7.371c-0.868,1.255-2.715,4.232-4.204,2.076c-0.791-2.612-0.77-5.432-1.391-8.096
						c-3.753,2.892-7.52,5.769-10.961,9.033c-1.356,0.896-2.474-1.096-1.222-2.005c3.369-3.163,7.024-5.976,10.68-8.793
						c4.417-3.86,4.112,4.588,4.711,7.12c10.715-15.358,7.594-11.555,14.331,3.426c0.431-1.979,0.754-3.981,1.024-5.99
						c0.468-1.481,0.067-6.894,2.219-6.527c0.639,0.109,1.073,0.73,0.968,1.368c-0.317,1.668-0.564,3.346-0.776,5.031
						C508.25,386.098,508.016,396.478,504.576,393.934z"/>
					<path style="fill-rule:evenodd;clip-rule:evenodd;fill:#FFFFFF;" d="M514.635,407.774c-0.364-1.134-3.13-4.849-1.567-5.491
						c1.274-0.142,1.225,1.835,1.861,2.615c0.238,0.961,1.75,2.27,0.759,3.128C515.347,408.234,514.832,408.141,514.635,407.774z"/>
					<path style="fill-rule:evenodd;clip-rule:evenodd;fill:#FFFFFF;" d="M511.536,410.747c-0.273-0.742-1.206-1.47-0.877-2.299
						c0.971-1.35,2.307,1.22,2.307,2.081C512.828,411.181,511.862,411.337,511.536,410.747z"/>
					<path style="fill-rule:evenodd;clip-rule:evenodd;fill:#FFFFFF;" d="M518.053,418.221c-0.947-0.844-1.272-2.271-1.944-3.341
						c-0.336-0.668-1.08-1.938,0.071-2.211c1.295,0.089,2.055,3.466,2.863,4.521C519.346,417.785,518.657,418.49,518.053,418.221z"
						/>
					<path style="fill-rule:evenodd;clip-rule:evenodd;fill:#FFFFFF;" d="M519.372,415.183c-0.277-1.066-1.796-3.202-0.304-3.826
						c1.217-0.022,1.073,2.341,1.753,3.182C521.244,415.472,519.779,416.126,519.372,415.183z"/>
					<path style="fill-rule:evenodd;clip-rule:evenodd;fill:#FFFFFF;" d="M513.329,422.965c-0.471-1.18-1.027-2.334-1.423-3.54
						c-0.094-0.398,0.105-0.811,0.512-0.93c1.114-0.207,1.124,1.385,1.594,2.064c0.218,0.849,1.441,2.165,0.351,2.804
						C513.983,423.533,513.494,423.361,513.329,422.965z"/>
					<path style="fill-rule:evenodd;clip-rule:evenodd;fill:#FFFFFF;" d="M505.788,415.904c-0.365-1.111-2.821-3.869-1.302-4.63
						c1.125-0.313,1.962,3.091,2.673,3.908C507.569,416.025,506.258,416.719,505.788,415.904z"/>
					<path style="fill-rule:evenodd;clip-rule:evenodd;fill:#FFFFFF;" d="M504.411,406.04c-0.538-0.414-2.146-2.991-1.19-3.41
						c1.008-0.536,1.363,0.993,1.753,1.572C505.554,404.915,505.728,406.335,504.411,406.04z"/>
					<path style="fill-rule:evenodd;clip-rule:evenodd;fill:#FFFFFF;" d="M507.688,424.586c-0.673-0.578-3.489-5.581-1.729-5.752
						c1.216,0.07,1.113,1.968,1.782,2.777C508.129,422.493,509.711,424.809,507.688,424.586z"/>
					<path style="fill-rule:evenodd;clip-rule:evenodd;fill:#FFFFFF;" d="M514.292,433.604c-0.269-1.102-4.025-6.281-1.328-5.955
						c1.263,1.459,1.748,3.628,2.742,5.327C516.12,433.88,514.705,434.525,514.292,433.604z"/>
					<path style="fill-rule:evenodd;clip-rule:evenodd;fill:#FFFFFF;" d="M519.402,431.528c-0.342-1.165-2.872-4.388-0.927-4.924
						c0.934-0.057,1.632,3.422,2.326,4.301C521.211,431.803,519.815,432.438,519.402,431.528z"/>
					<path style="fill-rule:evenodd;clip-rule:evenodd;fill:#FFFFFF;" d="M522.273,426.875c-0.624-1.359-1.27-2.717-1.756-4.134
						c-0.21-0.613,0.535-1.197,1.083-0.866c0.63,0.575,0.695,1.546,1.127,2.272c0.202,0.948,1.696,2.376,0.552,3.116
						C522.905,427.432,522.447,427.257,522.273,426.875z"/>
					<path style="fill-rule:evenodd;clip-rule:evenodd;fill:#FFFFFF;" d="M517.761,441.065c-0.307-0.689-0.814-2.074,0.354-2.178
						c0.853,0.009,0.807,1.083,1.101,1.648C519.513,441.425,518.107,441.936,517.761,441.065z"/>
					<path style="fill-rule:evenodd;clip-rule:evenodd;fill:#FFFFFF;" d="M509.193,436.732c-0.515-1.057-3.035-4.164-0.87-4.573
						c0.947,0.228,0.648,1.509,1.233,2.149c0.294,0.553,0.6,1.097,0.932,1.628C511.006,436.767,509.709,437.573,509.193,436.732z"/>
					<path style="fill-rule:evenodd;clip-rule:evenodd;fill:#FFFFFF;" d="M523.94,441.457c-0.305-0.933-1.783-2.465-0.649-3.237
						c1.3-0.353,1.337,1.683,1.984,2.418C525.819,441.495,524.451,442.332,523.94,441.457z"/>
					<path style="fill-rule:evenodd;clip-rule:evenodd;fill:#FFFFFF;" d="M528.228,433.943c-0.289-0.641-0.549-1.85,0.468-1.916
						c0.752-0.02,0.728,0.794,0.941,1.29C530.049,434.227,528.615,434.862,528.228,433.943z"/>
					<path style="fill-rule:evenodd;clip-rule:evenodd;fill:#FFFFFF;" d="M549.93,453.34c-1.008-1.481-2.31-3.323-1.466-3.901
						c1.075-0.569,2.402,2.326,3.263,3.901H549.93z"/>
					<path style="fill-rule:evenodd;clip-rule:evenodd;fill:#FFFFFF;" d="M551.961,448.999c-0.373-1.009-2.768-3.162-0.885-3.705
						c1.135,0.355,1.459,2.014,2.197,2.9C553.797,449.039,552.482,449.853,551.961,448.999z"/>
					<path style="fill-rule:evenodd;clip-rule:evenodd;fill:#FFFFFF;" d="M551.187,441.789c-0.599-1.106-3.768-3.963-2.307-5.009
						c1.187-0.365,1.415,1.607,2.091,2.162c0.405,0.908,2.207,1.942,1.302,2.96C551.953,442.162,551.446,442.12,551.187,441.789z"/>
					<path style="fill-rule:evenodd;clip-rule:evenodd;fill:#FFFFFF;" d="M559.453,453.34c-0.767-1.228-2.863-3.435-1.43-4.144
						c1.137-0.209,2.168,2.9,2.961,3.724c0.09,0.143,0.126,0.286,0.123,0.42H559.453z"/>
					<path style="fill-rule:evenodd;clip-rule:evenodd;fill:#FFFFFF;" d="M557.242,445.541c-0.39-0.62-0.693-1.277-0.977-1.952
						c-0.27-1.533,1.446-1.236,1.693,0.029c0.287,0.666,1.236,1.582,0.361,2.18C557.958,446.021,557.47,445.905,557.242,445.541z"/>
					<path style="fill-rule:evenodd;clip-rule:evenodd;fill:#FFFFFF;" d="M549.833,430.287c-0.289-0.734-1.425-1.783-0.514-2.452
						c1.059-0.534,1.346,1.021,1.838,1.639C551.686,430.327,550.347,431.15,549.833,430.287z"/>
					<path style="fill-rule:evenodd;clip-rule:evenodd;fill:#FFFFFF;" d="M544.474,421.303c-0.296-1.047-2.059-2.677-0.873-3.564
						c1.37-0.296,1.483,1.961,2.188,2.757C546.326,421.341,544.975,422.164,544.474,421.303z"/>
					<path style="fill-rule:evenodd;clip-rule:evenodd;fill:#FFFFFF;" d="M462.793,417.411c-0.225-1.245-3.18-6.066-1.852-6.56
						c1.426-0.294,1.475,2.061,2.09,2.951c0.197,1.152,1.968,3.116,0.778,4C463.435,417.967,462.953,417.8,462.793,417.411z"/>
					<path style="fill-rule:evenodd;clip-rule:evenodd;fill:#FFFFFF;" d="M456.79,408.605c-0.242-0.691-0.65-2.033,0.455-2.125
						c0.892,0.012,0.749,1.099,1.038,1.691C458.576,409.13,457.072,409.578,456.79,408.605z"/>
					<path style="fill-rule:evenodd;clip-rule:evenodd;fill:#FFFFFF;" d="M459.978,422.206c-0.293-0.914-0.597-1.83-0.746-2.78
						c-0.057-0.406,0.229-0.795,0.636-0.855c1.344,0.109,1.044,2.252,1.607,3.201C461.759,422.735,460.266,423.18,459.978,422.206z"
						/>
					<path style="fill-rule:evenodd;clip-rule:evenodd;fill:#FFFFFF;" d="M455.419,414.337c-0.435-1.122,1.116-1.951,1.465-0.681
						C457.315,414.805,455.823,415.627,455.419,414.337z"/>
					<path style="fill-rule:evenodd;clip-rule:evenodd;fill:#FFFFFF;" d="M460.768,430.003c-0.219-0.962-1.576-2.69-0.318-3.329
						c1.242-0.213,1.228,1.913,1.749,2.694C462.61,430.293,461.171,430.935,460.768,430.003z"/>
					<path style="fill-rule:evenodd;clip-rule:evenodd;fill:#FFFFFF;" d="M463.899,424.756c-0.109-0.878-1.011-2.692,0.359-2.906
						c1.139,0.123,0.744,1.692,1.122,2.476C465.658,425.285,464.166,425.719,463.899,424.756z"/>
					<path style="fill-rule:evenodd;clip-rule:evenodd;fill:#FFFFFF;" d="M455.191,425.222c-0.597-1.466-1.215-2.938-1.576-4.483
						c-0.271-0.932,1.182-1.356,1.444-0.417c0.144,0.553,0.324,1.091,0.517,1.629c0.151,1.119,1.799,2.79,0.632,3.663
						C455.835,425.78,455.351,425.612,455.191,425.222z"/>
					<path style="fill-rule:evenodd;clip-rule:evenodd;fill:#FFFFFF;" d="M465.1,435.67c-0.29-1.052-0.635-2.089-0.897-3.147
						c-0.062-0.366,0.184-0.73,0.536-0.833c1.499-0.086,1.318,2.536,1.825,3.556C466.841,436.189,465.372,436.623,465.1,435.67z"/>
					<path style="fill-rule:evenodd;clip-rule:evenodd;fill:#FFFFFF;" d="M460.585,440.892c-0.198-1.18-2.262-4.289-0.858-4.897
						c1.408-0.128,1.276,2.363,1.883,3.267c0.13,0.524,0.566,1.049,0.389,1.6C461.784,441.478,460.821,441.508,460.585,440.892z"/>
				</g>
				<g>
					<path style="fill-rule:evenodd;clip-rule:evenodd;fill:#FFFFFF;" d="M537.262,198.637c-0.921-0.637-1.589-1.628-2.328-2.467
						c-0.627-0.672-1.24-1.32-1.836-2.012c-1.12-1.311-2.173-2.677-3.174-4.081c-0.342-0.482-0.691-0.959-1.006-1.46
						c-0.205-0.297-0.424-0.727-0.116-1.033c-0.13-0.48,0.445-0.87,0.852-0.601c-0.364-0.479,0.072-1.174,0.653-0.884
						c0.645,0.577,1.048,1.395,1.577,2.074c0.469,0.537,0.929,1.083,1.393,1.623c1.096,1.234,2.063,2.579,3.246,3.732
						c0.475,0.482,0.949,0.965,1.413,1.456c0.362,0.334,0.934,0.941,0.347,1.348c0.355,0.63,0.922,2.374-0.387,2.127
						C537.751,198.659,537.485,198.717,537.262,198.637L537.262,198.637z M537.344,196.866c-0.516-0.813-1.212-1.525-1.878-2.211
						c-0.804-0.877-1.54-1.816-2.25-2.769C534.309,193.755,535.838,195.33,537.344,196.866z"/>
					<path style="fill-rule:evenodd;clip-rule:evenodd;fill:#FFFFFF;" d="M527.282,210.947c-0.304-0.076-0.47-0.381-0.406-0.68
						c0.033-0.155,0.074-0.308,0.113-0.462c-0.757,0.012-0.587-0.788-0.493-1.286c-0.853,0.115-0.701-0.84-0.611-1.39
						c0.232-1.651,0.587-3.193,0.941-4.81c0.604-4.23,1.308-8.467,2.168-12.641c-0.333-0.382-0.013-0.936,0.263-1.257
						c0.068-0.315,0.164-0.63,0.286-0.928c0.117-0.292,0.374-0.523,0.704-0.486c0.44,0.039,0.597,0.651,0.235,0.899
						c-0.014,0.035-0.027,0.07-0.04,0.106c-0.063,0.199-0.116,0.401-0.164,0.604c0.018,0.039,0.032,0.081,0.044,0.123
						c0.284-0.125,0.636,0.055,0.719,0.352c0.091,0.724-0.178,1.462-0.253,2.183c0.303-0.117,0.667,0.1,0.707,0.425
						c-0.029,0.615-0.244,1.224-0.346,1.834c-0.363,1.912-0.688,3.83-1.047,5.742c-0.488,2.702-1.042,5.364-1.545,8.052
						c-0.155,0.807-0.27,1.619-0.403,2.43C528.062,210.249,527.968,211.092,527.282,210.947z"/>
					<path style="fill-rule:evenodd;clip-rule:evenodd;fill:#FFFFFF;" d="M526.796,211.011c-1.069-1.036-1.694-2.442-2.519-3.668
						c-1.44-2.345-2.929-4.661-4.352-7.017c-0.553-0.999-4.033-6.441-3.124-7.128c-0.004-0.071,0.006-0.143,0.037-0.219
						c0.017-0.042,0.039-0.081,0.064-0.115c-0.242-0.519,0.33-1.106,0.826-0.738c0.468,0.039,0.552,0.611,0.737,0.956
						c0.271,0.563,0.545,1.025,0.842,1.56c0.763-0.226,0.889,0.884,1.217,1.345c0.707,1.381,1.443,2.728,2.189,4.086
						c0.806,1.456,1.619,2.906,2.419,4.366c0.185,0.342,0.373,0.682,0.551,1.028c0.127,0.229,0.225,0.521,0.096,0.768
						c0.31,0.484,0.624,0.967,0.933,1.452c0.331,0.391,0.459,1.025-0.168,1.162c0.022,0.035,0.045,0.07,0.068,0.105
						c0.79-0.338,0.993,0.708,1.06,1.273C527.863,210.781,527.341,211.381,526.796,211.011z"/>
					<path style="fill-rule:evenodd;clip-rule:evenodd;fill:#FFFFFF;" d="M540.924,223.388c-1.185-1.263-1.688-3.215-2.363-4.818
						c-0.276-0.936,1.18-1.36,1.451-0.42C540.089,219.33,543.54,223.653,540.924,223.388z"/>
					<path style="fill-rule:evenodd;clip-rule:evenodd;fill:#FFFFFF;" d="M537.195,212.169c-0.635-0.542-2.411-3.443-0.895-3.749
						c0.875-0.103,0.917,0.989,1.296,1.528C538.144,210.691,538.773,212.471,537.195,212.169z"/>
					<path style="fill-rule:evenodd;clip-rule:evenodd;fill:#FFFFFF;" d="M545.175,219.434c-0.48-1.343-4.558-7.165-3.086-7.85
						c1.308-0.515,2.259,3.76,3.095,4.693c0.271,1.054,2.059,2.432,1.036,3.407C545.875,219.896,545.384,219.793,545.175,219.434z"
						/>
					<path style="fill-rule:evenodd;clip-rule:evenodd;fill:#FFFFFF;" d="M541.012,205.143c-0.263-0.755-1.259-2.118-0.132-2.571
						c1.078-0.214,1.081,1.299,1.544,1.945C542.839,205.422,541.42,206.062,541.012,205.143z"/>
					<path style="fill-rule:evenodd;clip-rule:evenodd;fill:#FFFFFF;" d="M551.768,219.721c-0.439-1.377-2.495-3.32-1.84-4.689
						c1.376-1.207,2.415,3.043,3.168,3.872C553.637,219.758,552.276,220.59,551.768,219.721z"/>
					<path style="fill-rule:evenodd;clip-rule:evenodd;fill:#FFFFFF;" d="M551.953,230.141c-0.345-0.987-2.081-3.175-0.363-3.622
						c1.083,0.207,1.121,2.157,1.799,2.984C553.809,230.423,552.376,231.075,551.953,230.141z"/>
					<path style="fill-rule:evenodd;clip-rule:evenodd;fill:#FFFFFF;" d="M548.491,233.196c-0.335-1.112-2.908-3.829-0.967-4.377
						c1.242,0.433,1.475,2.567,2.272,3.575C550.327,233.233,548.993,234.051,548.491,233.196z"/>
					<path style="fill-rule:evenodd;clip-rule:evenodd;fill:#FFFFFF;" d="M556.224,244.674c-0.375-1.395-3.766-5.912-2.104-6.733
						c1.371-0.083,1.405,2.359,2.157,3.248c0.255,1.171,2.228,2.909,0.978,3.882C556.868,245.246,556.413,245.062,556.224,244.674z"
						/>
					<path style="fill-rule:evenodd;clip-rule:evenodd;fill:#FFFFFF;" d="M551.805,246.429c-0.727-0.655-3.053-4.873-1.189-5.093
						c1.1,0.174,0.846,1.835,1.471,2.595C552.52,244.725,553.552,246.7,551.805,246.429z"/>
					<path style="fill-rule:evenodd;clip-rule:evenodd;fill:#FFFFFF;" d="M542.962,236.844c-0.36-1.109-2.301-3.12-0.894-3.986
						c1.26-0.172,1.459,2.368,2.203,3.182C544.805,236.882,543.464,237.701,542.962,236.844z"/>
					<path style="fill-rule:evenodd;clip-rule:evenodd;fill:#FFFFFF;" d="M559.277,236.04c-0.392-0.979-2.296-3.213-0.527-3.683
						c1.078,0.22,1.199,2.143,1.887,2.967C561.046,236.161,559.739,236.851,559.277,236.04z"/>
					<path style="fill-rule:evenodd;clip-rule:evenodd;fill:#FFFFFF;" d="M558.4,225.738c-0.292-1.027-2.021-2.41-1.012-3.37
						c1.359-0.51,1.648,1.773,2.336,2.555C560.252,225.781,558.914,226.602,558.4,225.738z"/>
					<path style="fill-rule:evenodd;clip-rule:evenodd;fill:#FFFFFF;" d="M533.442,225.266c-0.218-0.887-1.517-2.303-0.433-2.984
						c1.279-0.368,1.297,1.607,1.833,2.363C535.248,225.547,533.843,226.178,533.442,225.266z"/>
					<path style="fill-rule:evenodd;clip-rule:evenodd;fill:#FFFFFF;" d="M558.053,256.268c-0.24-0.584-0.767-1.473,0.037-1.854
						c0.837-0.347,1.109,0.649,1.386,1.222C559.9,256.547,558.451,257.198,558.053,256.268z"/>
				</g>
				<g>
					<path style="fill-rule:evenodd;clip-rule:evenodd;fill:#FFFFFF;" d="M658.356,145.509c-2.089-3.721-3.81-7.642-5.728-11.453
						c-0.31-0.659-0.602-1.302-0.825-1.98c-0.072-0.219-0.131-0.472-0.043-0.696c0.128-0.335,0.551-0.442,0.842-0.246
						c0.782-0.162,0.85,1.092,1.141,1.585c0.424,1.046,0.907,2.068,1.376,3.095c0.755,1.465,1.49,2.939,2.218,4.418
						c0.359,0.732,0.72,1.465,1.048,2.212c0.082,0.185,0.041,0.398-0.087,0.543c0.313,0.71,0.688,1.398,1.006,2.103
						C659.468,145.663,658.673,146.019,658.356,145.509z"/>
					<path style="fill-rule:evenodd;clip-rule:evenodd;fill:#FFFFFF;" d="M660.605,147.87c-0.148-0.017-0.268-0.093-0.348-0.201
						c-0.473,0.103-0.782-0.439-0.999-0.768c-0.942-1.371-1.659-2.865-2.482-4.302c-1.105-1.916-2.189-3.844-3.247-5.786
						c-0.436-0.819-0.874-1.639-1.26-2.482c-0.135-0.366-0.423-0.768-0.268-1.166c-0.231-0.516-0.861-1.224-0.283-1.692
						c0.173-0.113,0.387-0.085,0.555,0.023c0.231,0.182,0.234,0.522,0.397,0.759c1.081,1.914,2.274,3.763,3.262,5.728
						c1.246,2.555,2.307,5.045,3.996,7.306c0.398-4.726,0.344-9.412,0.633-14.131c0.072-0.312,0.012-0.696,0.275-0.925
						c0.25-0.214,0.659-0.109,0.789,0.189c0.297,4.585,0.057,9.255-0.219,13.844c-0.061,0.919-0.131,1.838-0.189,2.757
						C661.244,147.411,661.087,147.93,660.605,147.87z"/>
					<path style="fill-rule:evenodd;clip-rule:evenodd;fill:#FFFFFF;" d="M672.258,140.049c-0.603-0.45-1.254-0.837-1.86-1.284
						c-0.654-0.078-1.207-0.54-1.757-0.875c-1.356-0.929-2.545-2.071-3.951-2.932c-1.232-0.876-2.501-1.726-3.655-2.704
						c-0.404-0.511,0.324-1.132,0.781-0.681c0.551-0.315,1.217,0.576,1.694,0.82c1.095,0.82,2.239,1.572,3.356,2.36
						c0.169,0.003,0.307,0.105,0.435,0.206c0.424,0.325,0.847,0.651,1.271,0.977c1.274,0.905,2.565,1.795,3.76,2.804
						c0.181,0.166,0.324,0.347,0.53,0.482C673.394,139.628,672.802,140.436,672.258,140.049z"/>
					<path style="fill-rule:evenodd;clip-rule:evenodd;fill:#FFFFFF;" d="M660.673,147.725c-0.85-0.154-0.254-1.439-0.278-2.022
						c0.177-1.532,0.284-3.07,0.418-4.606c0.2-2.194,0.3-4.399,0.496-6.595c0.07-0.673,0.128-1.347,0.182-2.02
						c0.11-0.49,0.848-0.503,0.98-0.017c0.059,1.275-0.192,2.556-0.241,3.835c-0.148,2.182-0.3,4.362-0.503,6.539
						c-0.087,1.006-0.171,2.01-0.288,3.013C661.294,146.418,661.518,147.778,660.673,147.725z"/>
					<path style="fill-rule:evenodd;clip-rule:evenodd;fill:#FFFFFF;" d="M667.479,164.731c-0.599-0.972-4.114-4.952-2.846-5.719
						c1.401-0.575,2.576,3.208,3.531,4.095C669.199,163.905,668.845,165.7,667.479,164.731z"/>
					<path style="fill-rule:evenodd;clip-rule:evenodd;fill:#FFFFFF;" d="M668.126,156.592c-0.479-1.12-2.526-2.983-1.286-4.047
						c1.384-0.318,1.705,2.432,2.589,3.248C669.95,156.629,668.653,157.438,668.126,156.592z"/>
					<path style="fill-rule:evenodd;clip-rule:evenodd;fill:#FFFFFF;" d="M668.394,145.534c-0.638-1.171-3.872-4.267-2.172-5.318
						c0.451-0.132,0.902,0.189,0.973,0.645c0.418,0.913,0.989,1.734,1.488,2.488c0.358,0.687,1.592,1.525,0.781,2.297
						C669.152,145.901,668.644,145.865,668.394,145.534z"/>
					<path style="fill-rule:evenodd;clip-rule:evenodd;fill:#FFFFFF;" d="M676.764,168.794c-0.497-1.137-3.618-4.513-1.527-5.137
						c1.06,0.233,1.078,1.855,1.8,2.6c0.343,0.579,0.677,1.163,1.034,1.734C678.591,168.832,677.296,169.641,676.764,168.794z"/>
					<path style="fill-rule:evenodd;clip-rule:evenodd;fill:#FFFFFF;" d="M676.991,159.65c-0.388-0.839-1.867-2.289-0.715-3.03
						c1.213-0.346,1.367,1.544,2.052,2.209C678.862,159.688,677.526,160.519,676.991,159.65z"/>
					<path style="fill-rule:evenodd;clip-rule:evenodd;fill:#FFFFFF;" d="M672.806,152.581c-0.391-0.586-0.752-1.181-1.06-1.815
						c-0.179-0.369,0.017-0.833,0.384-0.996c1.142-0.344,1.349,1.383,1.984,2.007C674.643,152.615,673.331,153.431,672.806,152.581z
						"/>
					<path style="fill-rule:evenodd;clip-rule:evenodd;fill:#FFFFFF;" d="M684.012,166.54c-0.153-0.233-0.309-0.463-0.467-0.693
						c-0.362-0.508-0.742-0.999-1.154-1.467c-0.796,0.185-1.172-0.852-0.766-1.428c1.6-1.292,2.842,1.775,3.69,2.787
						C685.838,166.574,684.534,167.387,684.012,166.54z"/>
					<path style="fill-rule:evenodd;clip-rule:evenodd;fill:#FFFFFF;" d="M682.971,175.838c-0.355-0.793-1.746-2.089-0.611-2.774
						c1.114-0.35,1.38,1.308,1.925,1.966C684.806,175.882,683.494,176.691,682.971,175.838z"/>
					<path style="fill-rule:evenodd;clip-rule:evenodd;fill:#FFFFFF;" d="M675.793,178.29c-0.401-0.925-2.024-2.687-0.685-3.409
						c1.258-0.114,1.239,1.873,1.987,2.609C677.614,178.329,676.307,179.138,675.793,178.29z"/>
					<path style="fill-rule:evenodd;clip-rule:evenodd;fill:#FFFFFF;" d="M679.095,156.125c-0.34-1.225-2.646-3.915-1.147-4.802
						c1.225-0.326,1.75,3.287,2.533,4.187C680.888,156.396,679.5,157.028,679.095,156.125z"/>
					<path style="fill-rule:evenodd;clip-rule:evenodd;fill:#FFFFFF;" d="M690.014,172.486c-0.26-0.756-1.248-2.104-0.115-2.559
						c1.083-0.222,1.081,1.279,1.525,1.932C691.836,172.767,690.415,173.404,690.014,172.486z"/>
					<path style="fill-rule:evenodd;clip-rule:evenodd;fill:#FFFFFF;" d="M689.505,187.288c-0.414-1.154-3.677-4.339-1.559-4.945
						c1.195,0.428,1.916,3.088,2.863,4.143C691.334,187.323,690.024,188.137,689.505,187.288z"/>
				</g>
				<g>
					<path style="fill-rule:evenodd;clip-rule:evenodd;fill:#FFFFFF;" d="M423.24,312.5c-0.036-1.159-1.584-3.866-0.119-4.383
						c1.434,0.081,1.084,2.89,1.605,3.953C425.013,313.029,423.508,313.468,423.24,312.5z"/>
					<path style="fill-rule:evenodd;clip-rule:evenodd;fill:#FFFFFF;" d="M420.835,301.888c-0.158-0.997-1.304-3.174,0.2-3.504
						c1.245,0.235,0.77,2.151,1.298,3.071C422.617,302.419,421.12,302.863,420.835,301.888z"/>
					<path style="fill-rule:evenodd;clip-rule:evenodd;fill:#FFFFFF;" d="M426.83,310.298c-0.08-1.167-1.425-3.675,0.007-4.262
						c1.435,0.051,0.939,2.836,1.46,3.837C428.581,310.82,427.095,311.252,426.83,310.298z"/>
					<path style="fill-rule:evenodd;clip-rule:evenodd;fill:#FFFFFF;" d="M420.129,290.001c-0.319-1.29-2.406-4.748-0.533-5.356
						c1.18,0.088,0.821,2.667,1.467,3.596c0.185,0.675,0.967,1.685,0.06,2.144C420.759,290.546,420.284,290.383,420.129,290.001z"/>
					<path style="fill-rule:evenodd;clip-rule:evenodd;fill:#FFFFFF;" d="M423.952,297.804c-0.536-0.65-0.928-2.71,0.277-2.844
						c1.072,0.053,0.679,1.399,0.944,2.109C425.301,297.72,424.467,298.212,423.952,297.804z"/>
					<path style="fill-rule:evenodd;clip-rule:evenodd;fill:#FFFFFF;" d="M416.983,295.165c-0.104-0.772-0.966-2.044,0.101-2.452
						c1.129-0.228,1.06,1.312,1.363,2.027C418.73,295.684,417.25,296.117,416.983,295.165z"/>
					<path style="fill-rule:evenodd;clip-rule:evenodd;fill:#FFFFFF;" d="M420.389,322.005c-1.046-2.497-1.256-5.502-1.617-8.219
						c-0.035-0.942,1.453-1.014,1.503-0.067C419.955,315.044,423.084,323.428,420.389,322.005z"/>
					<path style="fill-rule:evenodd;clip-rule:evenodd;fill:#FFFFFF;" d="M414.508,311.893c0.008-1.049-1.174-3.639,0.603-3.61
						c1.069,0.58,0.506,2.35,0.917,3.386C416.181,312.648,414.652,312.882,414.508,311.893z"/>
					<path style="fill-rule:evenodd;clip-rule:evenodd;fill:#FFFFFF;" d="M426.035,323.794c-0.182-1.075-0.525-2.316-0.517-3.368
						c-0.036-0.474,0.235-0.983,0.76-0.983c1.19,0.115,0.641,1.731,0.976,2.539c0.042,0.795,0.822,2.188-0.348,2.461
						C426.491,324.508,426.113,324.207,426.035,323.794z"/>
					<path style="fill-rule:evenodd;clip-rule:evenodd;fill:#FFFFFF;" d="M422.756,333.565c0.067-1.177-1.211-3.836,0.363-4.246
						c1.329,0.2,0.769,2.962,1.158,4.023C424.421,334.323,422.9,334.552,422.756,333.565z"/>
					<path style="fill-rule:evenodd;clip-rule:evenodd;fill:#FFFFFF;" d="M416.66,328.595c-0.247-0.949-0.43-3.117,1.086-2.238
						c0.426,0.551,0.227,1.365,0.432,2.015C418.336,329.35,416.799,329.583,416.66,328.595z"/>
					<path style="fill-rule:evenodd;clip-rule:evenodd;fill:#FFFFFF;" d="M426.235,336.999c0.127-1.23-1.021-4.276,0.519-4.679
						c1.407,0.307,0.558,2.499,0.918,3.567c-0.001-0.013-0.003-0.026-0.004-0.039c0.041,0.638,0.328,1.646-0.564,1.798
						C426.706,337.705,426.278,337.415,426.235,336.999z"/>
				</g>
				<path style="fill-rule:evenodd;clip-rule:evenodd;fill:#50656D;" d="M434.167,262.008c-0.438-0.092-1.178-0.085-1.996-0.077
					c-1.759,0.015-3.879,0.03-4.128-0.935c0.071-0.353,0.276-0.547,0.561-0.642c-0.107-0.849,0.896-2.026,1.401-2.58
					c1.997-1.938,5.153-2.742,7.788-1.75c-1.26-10.816,16.472-14.922,21.032-5.528c3.989-10.189,17.528-7.752,20.931,1.563
					c2.963-3.385,9.043-5.356,12.035-0.979c0.405,0.724,1.476,2.001,1.643,3.025c-0.168,0.141-0.306,0.335-0.443,0.499
					c-0.061,0.073-0.122,0.145-0.181,0.218c-0.065,0.072-0.126,0.146-0.183,0.221c-0.012,0.014-0.022,0.026-0.033,0.039
					c-0.017,0.02-0.033,0.04-0.047,0.061c-0.529-0.312-0.955-1.413-1.589-2.515c-0.761-1.322-1.823-2.645-3.726-2.601
					c-2.017-0.184-3.619,0.834-4.909,1.852c-1.613,1.275-2.736,2.548-3.565,1.47c-1.799-4.91-7.012-9.176-12.443-7.872
					c-4.019,1.187-5.153,3.78-6.945,7.052c-1.525,0.921-2.625-4.13-5.415-4.894c-4.943-2.099-11.94-0.434-14.302,4.69
					c-0.84,1.591,0.111,3.542-0.73,5.06c-0.761,0.726-1.762-0.186-2.62-0.253c-2.385-0.364-5.162,0.78-6.199,3.035
					c0.021,0.069,0.031,0.138,0.029,0.205c0.639,0.102,1.282,0.237,1.7,0.151c9.115,0.311,18.242,0.227,27.363,0.205
					c7.457-0.17,14.913-0.29,22.372-0.263c2.085,0.002,4.173-0.026,6.254-0.174c0.336-0.016,0.56,0.19,0.655,0.449
					c-0.117,0.173-0.225,0.353-0.336,0.529c-0.094,0.149-0.185,0.3-0.277,0.451c-11.762,0.335-23.545,0.309-35.316,0.452
					C446.42,262.14,440.291,262.168,434.167,262.008z"/>
				<g>
					<path style="fill-rule:evenodd;clip-rule:evenodd;fill:#50656D;" d="M646.182,193.825c-0.103-0.47-0.263-0.925-0.491-1.351
						c-2.693-5.199-7.082-5.199-12.182-4.762c-1.526-0.74-1.822-2.916-3.296-3.868c-3.528-3.002-8.59-1.211-10.869,2.409
						c-1.932,0.996-2.019-2.35-3.082-3.284c-4.957-5.865-11.952-2.662-13.549,4.2c-1.413,1.874-2.887-3.49-6.711-5.328
						c-6.194-4.415-14.113,2.11-14.123,8.876c-1.105,2.183-4.476-1.42-8.114,2.776c-0.42,0.277-0.528,0.892-0.649,1.449
						c0.365,0.015,0.712,0.026,0.975-0.036c12.081-0.064,24.167,0.251,36.251,0.151c10.867,0.072,21.711-0.654,32.561-1.133
						C643.713,194.078,645.209,193.645,646.182,193.825L646.182,193.825z M647.836,194.279c0.085,0.656-0.552,0.983-1.035,0.838
						c-0.121,0.097-0.273,0.157-0.437,0.162c-12.917,0.398-25.813,1.399-38.745,1.198c-11.932,0.135-23.871-0.373-35.797-0.101
						c-0.37,0.029-0.685-0.32-0.69-0.672c0.06-0.358,0.263-0.556,0.54-0.663c-0.424-3.463,5.836-6.162,8.818-5.045
						c1.456-12.123,14.7-14.982,21.32-4.621c2.151-8.776,13.937-9.224,17.038-0.88c3.729-5.68,12.596-4.454,15.079,1.736
						C640.105,185.016,646.606,187.551,647.836,194.279z"/>
					<path style="fill-rule:evenodd;clip-rule:evenodd;fill:#50656D;" d="M588.609,212.238c-1.342-1.443,1.504-4.951,2.414-6.21
						c0.355-0.382,0.628-1.021,1.192-1.098c0.421,0.008,0.845,0.293,0.682,0.76c-0.366,0.916-0.776,1.816-1.116,2.743
						C591.268,209.562,590.397,213.337,588.609,212.238L588.609,212.238z M589.289,211.318c0.042-0.042,0.082-0.085,0.122-0.13
						c0.025-0.033,0.05-0.067,0.074-0.101c-0.059-0.033-0.111-0.078-0.154-0.131C589.303,211.075,589.287,211.197,589.289,211.318z"
						/>
					<path style="fill-rule:evenodd;clip-rule:evenodd;fill:#50656D;" d="M588.383,210.862c0.009-0.679,1.008-0.692,1.035-0.013
						C589.409,211.529,588.409,211.541,588.383,210.862z"/>
					<path style="fill-rule:evenodd;clip-rule:evenodd;fill:#50656D;" d="M597.852,218.846c-1.254-0.715-0.066-2.259,0.377-3.15
						c0.536-0.943,1.104-1.868,1.68-2.787c0.518-0.731,0.961-1.738,1.562-2.36c0.365-0.23,0.867,0.119,0.746,0.542
						c-0.048,0.155-0.16,0.274-0.237,0.415c0.069,0.226-0.041,0.443-0.106,0.656c-0.208,0.675-0.372,1.361-0.526,2.051
						C600.929,216.062,600.402,219.391,597.852,218.846z"/>
					<path style="fill-rule:evenodd;clip-rule:evenodd;fill:#50656D;" d="M610.786,209.601c-1.729-0.623,0.012-3.212,0.597-4.146
						c0.47-0.723,0.97-1.438,1.565-2.064c0.146-0.147,0.339-0.293,0.549-0.325c0.496-0.089,0.784,0.612,0.367,0.897
						C613.531,205.553,612.968,209.78,610.786,209.601z"/>
					<path style="fill-rule:evenodd;clip-rule:evenodd;fill:#50656D;" d="M613.873,222.1c-2.325-0.618-0.005-3.458,0.738-4.573
						c0.389-0.484,1.237-2.01,1.957-1.654c0.212,0.117,0.299,0.338,0.273,0.572C616.427,217.84,615.8,222.381,613.873,222.1z"/>
					<path style="fill-rule:evenodd;clip-rule:evenodd;fill:#50656D;" d="M625.302,208.736c-1.63-0.967,1.057-4.52,1.734-5.632
						c0.148-0.203,0.279-0.44,0.493-0.58c0.351-0.219,0.828,0.099,0.751,0.51c0.021,0.137-0.015,0.301-0.028,0.438
						C628.171,204.824,627.324,209.544,625.302,208.736z"/>
				</g>
				<g>
					<path style="fill-rule:evenodd;clip-rule:evenodd;fill:#F7DE8E;" d="M93.511,365.788c7.041,0,12.748,5.708,12.748,12.748
						s-5.707,12.748-12.748,12.748c-7.041,0-12.747-5.707-12.747-12.748S86.47,365.788,93.511,365.788z"/>
					<path style="fill-rule:evenodd;clip-rule:evenodd;fill:#D1DAF6;" d="M203.638,453.34h-0.124h-0.367h-0.602h-0.829h-1.048
						h-1.259h-1.463h-1.659h-1.847h-2.027h-4.563h-2.52h-2.669h-2.81h-6.011h-3.186H65.558h-3.186h-6.011h-2.81h-2.669h-2.52H43.8
						h-2.027h-1.847h-1.659h-1.463h-1.259h-1.048h-0.829h-0.602H32.7h-0.124v-94.706v-3.006c1.53-1.709,2.809-3.053,3.099-3.396
						c6.598-7.224,14.145-13.573,21.691-19.766c5.613-3.314,8.283,14.878,9.899,18.405c1.47,4.579,2.622,9.349,4.788,13.656
						c9.091-3.475,8.599-10.718,13.694,4.482c2.375,7.247,5.32,14.071,7.59,21.319c1.942,6.395,3.258,13.008,5.664,19.25
						c3.554-3.261,6.103-7.523,9.322-11.108c3.834-4.507,7.813-9.018,11.523-13.599c2.277-2.313,5.11-7.426,8.906-5.363
						c6.296,4.659,9.649,12.232,13.58,18.805c2.164,3.84,4.192,7.754,6.095,11.729c1.892,2.812,4.41,12.458,8.604,10.971
						c15.507-5.428,16.461-19.513,29.398,0.9c7.266,10.051,13.157,20.945,19.772,31.406c0.003,0.006,0.006,0.013,0.01,0.02H203.638z
						"/>
					<path style="fill-rule:evenodd;clip-rule:evenodd;fill:#FFFFFF;" d="M134.74,405.813c-0.763-0.386-0.854-1.4-1.202-2.105
						c-1.606-3.871-2.94-7.962-5.693-11.204c-1.546,2.127-2.687,4.488-4.06,6.723c-0.604,1.215-2.517,4.344-3.174,1.413
						c-0.567-2.663-1.132-5.323-1.926-7.922c-4.905,3.137-9.647,6.637-14.976,9.037c-0.325,0.198-0.778,0.1-0.973-0.232
						c-0.769-1.181,2.976-2.123,3.714-2.741c13.693-7.285,12.576-12.93,15.416,0.841c1.303-1.635,4.323-8.701,6.041-8.733
						c3.527,2.149,5.539,9.156,7.193,12.925c1.24-4.251,1.928-8.661,3.103-12.938c0.102-0.371,0.48-0.61,0.86-0.513
						c1.302,0.288-0.45,3.967-0.485,4.997C137.838,397.099,137.028,406.64,134.74,405.813z"/>
					<path style="fill-rule:evenodd;clip-rule:evenodd;fill:#FFFFFF;" d="M134.893,404.735c-0.911-0.153-0.628-1.199-0.449-1.825
						c0.364-1.41,0.765-2.81,1.152-4.215c0.475-1.971,0.992-3.931,1.355-5.927c0.297-0.902,0.166-2.145,0.874-2.823
						c0.128-0.369,0.148-0.842,0.511-1.065c0.439-0.279,1.077,0.056,1.064,0.586c-0.309,1.463-0.743,2.919-1.089,4.388
						c-0.662,2.556-1.281,5.121-1.889,7.69C136.012,402.444,136.139,404.708,134.893,404.735z"/>
					<path style="fill-rule:evenodd;clip-rule:evenodd;fill:#FFFFFF;" d="M134.219,404.698c-1.383-2.463-2.92-4.832-4.498-7.174
						c-0.854-1.566-2.321-3.066-2.583-4.842c0.149-0.704,1.234-0.685,1.357,0.018c2.054,3.938,4.923,7.399,6.969,11.342
						C135.827,404.812,134.653,405.439,134.219,404.698z"/>
					<path style="fill-rule:evenodd;clip-rule:evenodd;fill:#FFFFFF;" d="M134.365,406.521c-1.768-2.457-3.119-5.218-4.504-7.908
						c-0.882-2.146-2.325-4.213-2.802-6.464c0.119-0.687,1.177-0.693,1.332-0.057c0.595,1.297,1.232,2.576,1.833,3.872
						c0.96-0.541,2.18,3.765,2.745,4.548c0.838,1.817,1.611,3.502,2.578,5.175C135.889,406.388,134.915,407.076,134.365,406.521z"/>
					<path style="fill-rule:evenodd;clip-rule:evenodd;fill:#FFFFFF;" d="M134.52,406.354c-0.31-0.877,0.335-1.818,0.478-2.693
						c0.442-0.849,0.668-4.489,1.833-4.113c1.201,0.358-0.239,2.82-0.286,3.736C136.15,404.095,135.975,407.867,134.52,406.354z"/>
					<path style="fill-rule:evenodd;clip-rule:evenodd;fill:#FFFFFF;" d="M121.281,401.423c-0.566-0.842,0.638-1.558,1.024-2.225
						c1.562-2.05,3.155-4.116,5.013-5.904c0.393-0.498,1.245-0.196,1.235,0.443c-0.373,1.128-1.633,1.819-2.282,2.825
						c-1.021,1.312-2.094,2.58-3.086,3.916C122.743,401.044,122.056,402.243,121.281,401.423z"/>
					<path style="fill-rule:evenodd;clip-rule:evenodd;fill:#FFFFFF;" d="M120.522,401.482c-0.774-0.796-2.803-8.208-2.027-9.044
						c0.093-0.835,1.391-0.842,1.408,0.032c-0.009,0.581,0.231,1.145,0.393,1.698c0.514,1.692,0.909,3.418,1.362,5.127
						c0.129,0.609,0.664,1.549-0.143,1.894C121.338,401.535,120.864,401.681,120.522,401.482z"/>
					<path style="fill-rule:evenodd;clip-rule:evenodd;fill:#FFFFFF;" d="M105.422,401.791c-1.361-0.847,0.492-1.751,1.232-2.178
						c1.833-2.07,4.56-3.152,6.856-4.638c1.755-0.963,3.336-2.309,5.189-3.061c0.618-0.119,1.105,0.681,0.706,1.171
						c-0.231,0.293-0.603,0.47-0.92,0.656c0.608,1.227-6.901,4.485-8.066,5.341C108.787,399.719,107.128,401.815,105.422,401.791z"
						/>
					<path style="fill-rule:evenodd;clip-rule:evenodd;fill:#FFFFFF;" d="M58.052,343.184c-0.056-1.182-1.764-3.883-0.246-4.452
						c1.302-0.066,1.222,3.049,1.718,4.026C59.799,343.707,58.321,344.142,58.052,343.184z"/>
					<path style="fill-rule:evenodd;clip-rule:evenodd;fill:#FFFFFF;" d="M62.294,349.47c-0.076-1.179-1.792-3.599-0.466-4.311
						c1.488-0.111,1.351,2.855,1.94,3.884C64.05,349.991,62.568,350.429,62.294,349.47z"/>
					<path style="fill-rule:evenodd;clip-rule:evenodd;fill:#FFFFFF;" d="M58.506,353.104c-0.033-1.123-1.549-3.221-0.094-3.802
						c1.392,0.131,1.048,2.37,1.554,3.379C60.243,353.624,58.771,354.054,58.506,353.104z"/>
					<path style="fill-rule:evenodd;clip-rule:evenodd;fill:#FFFFFF;" d="M63.465,359.509c-0.062-1.156-1.799-3.787-0.281-4.336
						c1.357,0.048,1.202,2.896,1.737,3.915C65.198,360.028,63.734,360.456,63.465,359.509z"/>
					<path style="fill-rule:evenodd;clip-rule:evenodd;fill:#FFFFFF;" d="M61.027,365.074c-0.097-1.151-1.653-3.866-0.175-4.411
						c1.362-0.024,1.066,2.987,1.645,3.986C62.776,365.595,61.299,366.03,61.027,365.074z"/>
					<path style="fill-rule:evenodd;clip-rule:evenodd;fill:#FFFFFF;" d="M66.114,366.591c-0.061-0.65-0.402-1.698,0.52-1.863
						c0.941-0.107,0.9,0.991,0.998,1.64C67.785,367.348,66.247,367.576,66.114,366.591z"/>
					<path style="fill-rule:evenodd;clip-rule:evenodd;fill:#FFFFFF;" d="M56.058,357.999c-0.209-0.625-0.531-1.649,0.394-1.818
						c0.827-0.111,0.88,0.824,1.065,1.395C57.798,358.515,56.328,358.95,56.058,357.999z"/>
					<path style="fill-rule:evenodd;clip-rule:evenodd;fill:#FFFFFF;" d="M86.533,390.823c-0.082-1.112-1.646-3.715-0.174-4.221
						c0.588-0.09,0.874,0.458,0.923,0.96c-0.003-0.014-0.006-0.027-0.009-0.041c0,1.162,1.523,3.086,0.216,3.828
						C87.093,391.465,86.647,391.229,86.533,390.823z"/>
					<path style="fill-rule:evenodd;clip-rule:evenodd;fill:#FFFFFF;" d="M83.269,379.842c0.052-0.981-0.741-2.982,0.623-3.251
						c1.325,0.195,0.549,2.094,0.894,3.028C84.935,380.6,83.4,380.827,83.269,379.842z"/>
					<path style="fill-rule:evenodd;clip-rule:evenodd;fill:#FFFFFF;" d="M83.508,394.786c-0.071-0.773-0.582-2.278,0.587-2.398
						c1.095,0.062,0.671,1.449,0.929,2.175C85.18,395.541,83.65,395.773,83.508,394.786z"/>
					<path style="fill-rule:evenodd;clip-rule:evenodd;fill:#FFFFFF;" d="M90.598,402.7c-0.538-0.544-2.008-4.296-0.782-4.514
						c1.41-0.21,1.255,2.701,1.879,3.636C91.908,402.444,91.155,403.035,90.598,402.7z"/>
					<path style="fill-rule:evenodd;clip-rule:evenodd;fill:#FFFFFF;" d="M89.517,393.669c-0.195-0.614-0.656-1.581,0.224-1.863
						c0.892-0.231,1.017,0.835,1.229,1.443C91.253,394.181,89.79,394.617,89.517,393.669z"/>
					<path style="fill-rule:evenodd;clip-rule:evenodd;fill:#FFFFFF;" d="M86.456,403.197c-0.114-0.782-0.882-2.232,0.276-2.521
						c0.398-0.059,0.794,0.227,0.847,0.63c0.02,0.777,0.875,2.011-0.184,2.409C87.01,403.826,86.554,403.599,86.456,403.197z"/>
					<path style="fill-rule:evenodd;clip-rule:evenodd;fill:#FFFFFF;" d="M92.544,410.839c-0.137-0.797-0.861-2.392,0.411-2.551
						c1.024,0.064,0.768,1.427,1.073,2.121C94.304,411.369,92.813,411.803,92.544,410.839z"/>
					<path style="fill-rule:evenodd;clip-rule:evenodd;fill:#FFFFFF;" d="M81.197,388.418c-0.498-0.509-1.894-3.697-0.689-3.903
						c1.396-0.105,1.199,2.131,1.777,3.033C82.498,388.164,81.748,388.753,81.197,388.418z"/>
					<path style="fill-rule:evenodd;clip-rule:evenodd;fill:#FFFFFF;" d="M177.689,452.747c-0.265-0.947-1.699-2.655-0.413-3.308
						c1.291-0.138,1.213,1.878,1.85,2.67C179.547,453.031,178.102,453.682,177.689,452.747z"/>
					<path style="fill-rule:evenodd;clip-rule:evenodd;fill:#FFFFFF;" d="M177.971,446.487c-0.482-1.053-2.932-3.569-1.379-4.408
						c1.14-0.286,1.808,2.817,2.693,3.601C179.817,446.521,178.497,447.343,177.971,446.487z"/>
					<path style="fill-rule:evenodd;clip-rule:evenodd;fill:#FFFFFF;" d="M183.157,434.504c-0.339-1.259-3.501-5.742-2.123-6.419
						c1.306-0.65,2.69,4.776,3.53,5.794C184.976,434.779,183.57,435.42,183.157,434.504z"/>
					<path style="fill-rule:evenodd;clip-rule:evenodd;fill:#FFFFFF;" d="M175.991,422.477c-0.318-0.577-0.917-1.513-0.069-1.92
						c0.361-0.16,0.848-0.001,0.995,0.383c0.251,0.564,0.864,1.32,0.126,1.789C176.702,422.938,176.189,422.844,175.991,422.477z"/>
					<path style="fill-rule:evenodd;clip-rule:evenodd;fill:#FFFFFF;" d="M184.96,429.229c-0.239-1.115-2.162-3.255-0.75-4.027
						c1.312-0.178,1.466,2.528,2.136,3.411C186.749,429.505,185.358,430.131,184.96,429.229z"/>
					<path style="fill-rule:evenodd;clip-rule:evenodd;fill:#FFFFFF;" d="M179.826,439.348c-0.447-1.148-3.063-4.677-1.742-5.499
						c1.336-0.496,1.865,3.101,2.646,3.98C181.659,438.835,181.053,440.462,179.826,439.348z"/>
					<path style="fill-rule:evenodd;clip-rule:evenodd;fill:#FFFFFF;" d="M187.447,445.447c-0.303-1.078-2.176-2.734-0.968-3.666
						c1.401-0.245,1.619,2.073,2.326,2.952C189.212,445.571,187.903,446.258,187.447,445.447z"/>
					<path style="fill-rule:evenodd;clip-rule:evenodd;fill:#FFFFFF;" d="M190.13,440.713c-0.361-1.227-3.24-4.32-2.078-5.227
						c1.407-0.655,2.567,3.482,3.385,4.423C191.957,440.754,190.639,441.566,190.13,440.713z"/>
					<path style="fill-rule:evenodd;clip-rule:evenodd;fill:#FFFFFF;" d="M194.975,445.749c-0.234-0.779-1.259-2.151-0.115-2.614
						c1.101-0.22,1.084,1.319,1.518,1.99C196.783,446.031,195.375,446.66,194.975,445.749z"/>
					<path style="fill-rule:evenodd;clip-rule:evenodd;fill:#FFFFFF;" d="M192.848,453.34c-0.683-1.398-1.603-3.276-0.185-3.658
						c0.851-0.02,1.265,2.391,1.805,3.658H192.848z"/>
					<path style="fill-rule:evenodd;clip-rule:evenodd;fill:#FFFFFF;" d="M199.778,453.34c-0.499-0.791-1.014-1.575-1.403-2.422
						c-0.122-0.348,0.092-0.752,0.416-0.896c1.049-0.354,1.311,1.161,1.841,1.77c0.17,0.46,0.686,1.01,0.971,1.548H199.778z"/>
					<path style="fill-rule:evenodd;clip-rule:evenodd;fill:#FFFFFF;" d="M184.053,453.34c-0.445-0.917-0.738-1.82-0.079-2.27
						c0.962-0.251,1.409,1.079,1.813,2.27H184.053z"/>
					<path style="fill-rule:evenodd;clip-rule:evenodd;fill:#50666E;" d="M186.877,453.34
						c-5.399-10.623-11.022-21.129-17.227-31.308c-3.853-5.964-6.966-12.875-11.991-17.873
						c-10.561,10.199-18.148,23.275-28.632,33.591c-2.833,2.743-3.92-0.407-5.994-1.989c-5.007,4.358-8.051,11.78-12.255,17.161
						c-0.112,0.118-0.226,0.26-0.342,0.418h-1.847c2.921-4.245,5.73-8.573,8.519-12.904c3.634-4.418,4.578-9.686,9.721-3.225
						c6.288-4.809,10.774-12.014,15.854-18.102c4.695-5.472,8.81-11.809,14.349-16.407c3.283-1.793,12.871,17.373,15.093,20.394
						c5.114,8.379,9.765,17.038,14.231,25.77c0.777,1.485,1.536,2.979,2.291,4.475H186.877z"/>
					<path style="fill-rule:evenodd;clip-rule:evenodd;fill:#50666E;" d="M32.576,401.011c2.454,0,4.943,0.06,7.385-0.066
						c8.175-0.176,16.352-0.256,24.527-0.071c1.328,0.308,5.416-0.747,5.681,0.789c0.229,1.674-9.009,0.403-10.553,0.67
						c-9.015-0.145-18.027,0.171-27.04,0.241V401.011z"/>
					<path style="fill-rule:evenodd;clip-rule:evenodd;fill:#50666E;" d="M68.667,402.278c-1.221-0.079-0.544-1.495-0.793-2.254
						c-0.425-1.622-2.228-2.73-3.858-2.676c-0.964-0.017-1.802,1.036-2.757,0.599c-1.601-2.268-0.418-5.146-3.717-7.677
						c-3.682-3.594-10.053-2.841-12.222,2.006c-0.237,0.454-0.465,1.04-1.04,1.126c-1.657-0.101-1.074-3.048-2.464-3.978
						c-2.288-2.022-5.992-3.195-9.241-2.734v-1.57c4.673-0.6,10.114,1.334,11.815,5.616c4.934-8.408,17.419-3.372,17.721,5.548
						c3.16-1.731,7.733,1.095,7.366,4.74C69.492,401.553,69.326,402.285,68.667,402.278z"/>
				</g>
				<g>
					<path style="fill-rule:evenodd;clip-rule:evenodd;fill:#50666E;" d="M325.675,381.562c-2.386-1.577-4.873-3.986-8.008-3.067
						c-0.397,0.092-0.847,0.244-1.208-0.026c-1.239-1.451,1.56-1.764,2.524-1.801c2.597-0.062,4.901,1.458,6.841,3.037
						c1.622-2.954,4.71-4.853,8.01-5.323c0.391-0.06,0.776,0.191,0.885,0.57c0.394,1.477-3.849,1.43-4.88,2.704
						C328.101,378.338,327.215,381.954,325.675,381.562z"/>
					<path style="fill-rule:evenodd;clip-rule:evenodd;fill:#50666E;" d="M312.184,395.229c-1.521-1.231-3.062-2.69-5.121-2.87
						c-0.407,0.031-0.804-0.222-0.863-0.643c0.65-2.482,5.149,0.614,6.241,1.661c0.696-1.243,3.491-4.362,4.852-2.839
						c0.176,0.396-0.005,0.885-0.406,1.059C314.38,392.019,313.726,395.806,312.184,395.229z"/>
				</g>
			</g>
		</g>
		<text transform="matrix(1 0 0 1 80.8252 152.2522)"><tspan x="0" y="0" style="fill:#F08A54; font-family:'OpenSans-Extrabold'; font-size:21.2164px;">L</tspan><tspan x="12.349" y="0" style="fill:#F08A54; font-family:'OpenSans-Extrabold'; font-size:21.2164px;">ET’S GO TO</tspan></text>
		<text transform="matrix(1 0 0 1 75.7217 237.6335)"><tspan x="0" y="0" style="font-family:'OpenSans'; font-size:10.2806px;">L</tspan><tspan x="5.336" y="0" style="font-family:'OpenSans'; font-size:10.2806px;">orem ipsum dolor sit amet, consectetuer adipiscing elit, </tspan><tspan x="0" y="12" style="font-family:'OpenSans'; font-size:10.2806px;">s</tspan><tspan x="4.904" y="12" style="font-family:'OpenSans'; font-size:10.2806px;">ed diam nonummy nibh euismod tincidunt ut </tspan><tspan x="0" y="24" style="font-family:'OpenSans'; font-size:10.2806px;">c</tspan><tspan x="4.895" y="24" style="font-family:'OpenSans'; font-size:10.2806px;">onsectetuer adipiscing elit, sed diam nonummy</tspan><tspan x="0" y="36" style="font-family:'OpenSans'; font-size:10.2806px;">nibh euismod tincidunt ut</tspan><tspan x="123.708" y="36" style="font-family:'OpenSans'; font-size:10.2806px;"> </tspan></text>
		<g>
			<g>
				<path style="fill-rule:evenodd;clip-rule:evenodd;fill:#B5C6E5;" d="M118.979,298.961c-0.11,0.009-0.32,0.104-0.431,0.147
					c-0.292,0.114-1.117,0.328-1.399,0.335c0.343-0.298,0.407-0.237,0.839-0.766c0.397-0.485,0.382-0.665,0.573-1.064
					c-0.198,0.046-0.314,0.165-0.492,0.247c-0.173,0.08-0.34,0.15-0.517,0.222c-0.348,0.14-0.761,0.245-1.143,0.334
					c-0.29-0.433-1.162-0.868-1.768-0.993c-1.155-0.239-2.053,0.078-2.915,0.773c-0.306,0.247-0.598,0.635-0.775,0.991
					c-0.195,0.391-0.448,1.189-0.372,1.688c0.028,0.184,0.023,0.499,0.083,0.624c-0.471-0.11-1.066-0.035-2.211-0.389
					c-0.341-0.105-0.652-0.2-0.976-0.34c-0.319-0.138-0.598-0.274-0.89-0.426c-0.731-0.381-1.47-0.954-2.079-1.517
					c-0.067-0.061-0.111-0.112-0.176-0.177c-0.144-0.142-0.514-0.602-0.634-0.682c-0.077,0.329-0.738,1.208-0.325,2.605
					c0.391,1.323,1.224,1.746,1.321,1.89c-0.472,0-1.073-0.204-1.477-0.417c0,1.264,0.648,2.317,1.579,2.915
					c0.233,0.15,0.505,0.268,0.768,0.355l0.263,0.09c0.005,0.002,0.015,0.006,0.022,0.01c-0.154,0.013-0.38,0.079-0.706,0.096
					c-0.321,0.018-0.487-0.043-0.739-0.064c0.239,1.027,1.37,2.057,2.468,2.283c0.154,0.032,0.439,0.089,0.613,0.093
					c-0.223,0.333-1.569,0.957-2.08,1.098c-0.752,0.208-1.244,0.314-2.061,0.314c-0.304,0-0.486-0.032-0.771-0.032l0.117,0.076
					c0.854,0.484,1.038,0.622,2.102,0.98c1.739,0.585,4.006,0.599,5.754,0.08c0.415-0.124,0.828-0.267,1.197-0.44
					c0.2-0.094,0.383-0.163,0.563-0.272c1.133-0.687,1.342-0.802,2.329-1.78c1.373-1.361,2.436-3.739,2.635-5.583
					c0.058-0.538,0.07-0.999,0.07-1.599c0.235-0.125,0.706-0.562,0.907-0.762c0.09-0.09,0.111-0.139,0.192-0.225
					C118.555,299.553,118.942,299.099,118.979,298.961z"/>
				<polygon style="fill-rule:evenodd;clip-rule:evenodd;fill:#B5C6E5;" points="118.979,298.961 119.011,298.961 118.984,298.923 
									"/>
			</g>
			<path style="fill-rule:evenodd;clip-rule:evenodd;fill:#B5C6E5;" d="M76.029,297.735v12.584c0,0.51,0.268,0.991,0.602,1.324
				c0.166,0.166,0.338,0.312,0.558,0.405c0.228,0.097,0.45,0.197,0.767,0.197h6.292v-5.65h-2.055v-2.568h2.055
				c0-1.033-0.102-2.363,0.243-3.224c0.294-0.736,0.908-1.363,1.646-1.66c0.887-0.357,2.178-0.252,3.247-0.252v2.568
				c-0.428,0-1.667-0.076-1.887,0.103c-0.074,0.06-0.167,0.19-0.167,0.314v2.151h2.536c-0.011,0.131-0.646,1.663-0.748,1.917
				c-0.08,0.2-0.201,0.451-0.248,0.651h-1.541v5.65h3.21c0.966,0,1.926-0.96,1.926-1.926v-12.584c0-0.687-0.545-1.468-1.16-1.73
				c-0.227-0.097-0.45-0.197-0.766-0.197H77.955C76.988,295.809,76.029,296.769,76.029,297.735z"/>
			<path style="fill-rule:evenodd;clip-rule:evenodd;fill:#B5C6E5;" d="M135.027,303.257c0,0.328,0.758,1.255,1.003,1.501
				c0.041,0.041,0.056,0.059,0.093,0.1l0.549,0.511c0.353,0.33,1.563,1.035,1.918,1.035c0.559,0,0.885-1.22,1.348-1.22
				c0.173,0,0.524,0.165,0.664,0.235c0.211,0.105,0.399,0.183,0.61,0.289l0.898,0.451c0.169,0.097,0.173,0.158,0.173,0.373
				c0,0.6-0.204,1.145-0.655,1.496c-1.214,0.945-2.338,0.583-3.656,0.054c-0.695-0.279-1.128-0.485-1.738-0.927
				c-0.21-0.152-0.553-0.404-0.732-0.584c-0.091-0.091-0.15-0.117-0.242-0.208c-1-0.989-2.672-2.926-2.672-4.358
				c0-0.717,0.069-1.194,0.518-1.794c0.3-0.401,0.709-0.703,1.26-0.629c0.45,0.06,0.45-0.028,0.63,0.336
				c0.101,0.204,0.202,0.457,0.288,0.674l0.426,1.018c0.082,0.189,0.119,0.243,0.119,0.459
				C135.829,302.449,135.027,302.991,135.027,303.257L135.027,303.257z M129.12,304.097c0.001,0.62,0.014,0.814,0.169,1.591
				c0.172,0.863,0.583,1.948,1.07,2.686c0.428,0.649,0.4,0.224-0.191,1.997c-0.09,0.271-0.486,1.334-0.502,1.521l2.757-0.871
				c0.556-0.186,0.395-0.097,0.828,0.143c0.272,0.151,0.497,0.265,0.792,0.396c1.187,0.528,2.196,0.685,3.52,0.685
				c1.24,0,2.147-0.305,3.229-0.752c0.789-0.326,2.001-1.198,2.591-1.903l1.068-1.436c0.809-1.378,1.105-2.729,1.105-4.352
				c0-1.238-0.305-2.146-0.752-3.229c-0.244-0.592-0.742-1.319-1.164-1.821l-0.242-0.271c-1.421-1.609-3.683-2.672-5.835-2.672
				c-1.624,0-2.297,0.181-3.678,0.752c-0.538,0.222-1.512,0.857-1.964,1.278l-0.272,0.241c-0.05,0.044-0.08,0.08-0.129,0.128
				c-0.461,0.461-0.964,1.128-1.295,1.691c-0.658,1.12-1.105,2.563-1.105,3.903v0.04V304.097z"/>
		</g>
		<text transform="matrix(1 0 0 1 73.3023 204.4274)"><tspan x="0" y="0" style="font-family:'CaveatRoman-Regular'; font-size:57.5798px;">A</tspan><tspan x="35.239" y="0" style="font-family:'CaveatRoman-Regular'; font-size:57.5798px;">DVENTURE</tspan></text>
		<g>
			<text transform="matrix(1 0 0 1 236.1358 80.9675)"><tspan x="0" y="0" style="fill:#F08A54; font-family:'OpenSans'; font-size:11.8656px;">h</tspan><tspan x="7.283" y="0" style="fill:#F08A54; font-family:'OpenSans'; font-size:11.8656px;">ome</tspan></text>
			<text transform="matrix(1 0 0 1 404.4263 80.9675)"><tspan x="0" y="0" style="fill:#514034; font-family:'OpenSans'; font-size:11.8656px;">a</tspan><tspan x="6.599" y="0" style="fill:#514034; font-family:'OpenSans'; font-size:11.8656px;">bout</tspan></text>
			<text transform="matrix(1 0 0 1 484.567 80.9675)"><tspan x="0" y="0" style="fill:#514034; font-family:'OpenSans'; font-size:11.8656px;">c</tspan><tspan x="5.648" y="0" style="fill:#514034; font-family:'OpenSans'; font-size:11.8656px;">ontact us</tspan></text>
			<text transform="matrix(1 0 0 1 312.5386 80.9675)"><tspan x="0" y="0" style="fill:#514034; font-family:'OpenSans'; font-size:11.8656px;">s</tspan><tspan x="5.661" y="0" style="fill:#514034; font-family:'OpenSans'; font-size:11.8656px;">ervices</tspan></text>
			<path style="fill-rule:evenodd;clip-rule:evenodd;fill:#F08A54;" d="M234.328,85.784h35.083c0.315,0,0.574,0.258,0.574,0.574l0,0
				c0,0.315-0.258,0.573-0.574,0.573h-35.083c-0.315,0-0.574-0.258-0.574-0.573l0,0C233.754,86.042,234.012,85.784,234.328,85.784z"
				/>
			<g>
				<path style="fill-rule:evenodd;clip-rule:evenodd;fill:#514034;" d="M599.752,68.834h70.198c2.187,0,4.176,0.895,5.617,2.336
					c1.441,1.441,2.335,3.429,2.335,5.617s-0.895,4.176-2.335,5.617c-1.441,1.441-3.429,2.335-5.617,2.335h-70.198
					c-2.187,0-4.176-0.894-5.616-2.335c-1.441-1.441-2.336-3.429-2.336-5.617c0-2.188,0.894-4.176,2.336-5.617
					C595.576,69.729,597.565,68.834,599.752,68.834L599.752,68.834z M669.949,70.034h-70.198c-1.856,0-3.544,0.76-4.768,1.984
					c-1.224,1.224-1.984,2.912-1.984,4.769c0,1.856,0.76,3.544,1.984,4.769c1.224,1.224,2.912,1.984,4.768,1.984h70.198
					c1.856,0,3.544-0.76,4.768-1.984c1.224-1.224,1.984-2.912,1.984-4.769s-0.76-3.544-1.984-4.769
					C673.494,70.794,671.806,70.034,669.949,70.034z"/>
				<path style="fill-rule:evenodd;clip-rule:evenodd;fill:#514034;" d="M669.276,77.376l2.252,2.252
					c0.279,0.279,0.279,0.735,0,1.014l0,0c-0.279,0.279-0.735,0.279-1.014,0l-2.292-2.292c-0.518,0.303-1.1,0.455-1.682,0.455
					c-0.853,0-1.705-0.325-2.355-0.976s-0.976-1.503-0.976-2.355s0.325-1.705,0.976-2.355s1.503-0.976,2.355-0.976
					c0.852,0,1.705,0.325,2.355,0.976c0.65,0.65,0.976,1.503,0.976,2.355C669.871,76.14,669.672,76.806,669.276,77.376
					L669.276,77.376z M668.871,75.474c0-0.596-0.228-1.193-0.683-1.648c-0.455-0.455-1.052-0.683-1.648-0.683
					s-1.193,0.228-1.648,0.683c-0.455,0.455-0.683,1.052-0.683,1.648c0,0.597,0.228,1.193,0.683,1.648
					c0.455,0.455,1.052,0.683,1.648,0.683s1.193-0.228,1.648-0.683C668.643,76.667,668.871,76.071,668.871,75.474z"/>
			</g>
		</g>
		<polygon style="fill-rule:evenodd;clip-rule:evenodd;fill:#B5C6E5;" points="139.831,89.755 84.529,89.981 96.77,74.782 
			103.479,83.581 115.989,65.52 125.78,82.5 131.763,75.708 		"/>
	</g>
</g>
</svg>
